<svg width="57" height="56" viewBox="0 0 57 56" fill="none" xmlns="http://www.w3.org/2000/svg">
<path d="M28.1564 12.8284C19.5184 12.8284 12.5139 19.7927 12.5139 28.384C12.5139 35.257 16.996 41.0878 23.2113 43.1448C23.993 43.2887 24.2801 42.8073 24.2801 42.3964C24.2801 42.0255 24.2655 40.8 24.2588 39.5003C19.907 40.4412 18.9887 37.6649 18.9887 37.6649C18.2771 35.8669 17.2519 35.3889 17.2519 35.3889C15.8327 34.4234 17.3589 34.4431 17.3589 34.4431C18.9297 34.5529 19.7568 36.0462 19.7568 36.0462C21.1519 38.4243 23.4161 37.7368 24.3088 37.3394C24.4491 36.3339 24.8546 35.6477 25.3019 35.2593C21.8275 34.8658 18.1751 33.532 18.1751 27.5716C18.1751 25.8733 18.7861 24.4856 19.7869 23.3963C19.6244 23.0044 19.089 21.4223 19.9384 19.2796C19.9384 19.2796 21.2519 18.8615 24.2412 20.8741C25.4888 20.5294 26.8271 20.3566 28.1564 20.3508C29.4858 20.3566 30.825 20.5294 32.0751 20.8741C35.0608 18.8615 36.3725 19.2796 36.3725 19.2796C37.224 21.4223 36.6883 23.0044 36.5259 23.3963C37.5288 24.4856 38.1357 25.8732 38.1357 27.5716C38.1357 33.5462 34.4764 34.8618 30.9932 35.2469C31.5542 35.7296 32.0542 36.6763 32.0542 38.1275C32.0542 40.2088 32.036 41.884 32.036 42.3964C32.036 42.8104 32.3175 43.2954 33.1106 43.1427C39.3224 41.0835 43.7988 35.2547 43.7988 28.384C43.7988 19.7927 36.7953 12.8284 28.1564 12.8284Z" fill="#161614"/>
<path d="M18.3726 34.9877C18.3382 35.0649 18.2158 35.0881 18.1045 35.0351C17.991 34.9844 17.9272 34.879 17.964 34.8014C17.9978 34.7218 18.1202 34.6996 18.2335 34.7531C18.3472 34.8037 18.412 34.9101 18.3726 34.9877V34.9877ZM19.142 35.6704C19.0674 35.7392 18.9216 35.7072 18.8226 35.5985C18.7203 35.4901 18.7011 35.3451 18.7768 35.2752C18.8537 35.2065 18.9952 35.2386 19.0978 35.3472C19.2001 35.4569 19.2199 35.601 19.1419 35.6705L19.142 35.6704ZM19.6699 36.5439C19.574 36.6101 19.4172 36.548 19.3204 36.4097C19.2246 36.2715 19.2246 36.1055 19.3225 36.0391C19.4197 35.9726 19.574 36.0323 19.6721 36.1696C19.7678 36.3103 19.7678 36.4762 19.6698 36.544L19.6699 36.5439ZM20.5626 37.5556C20.4768 37.6496 20.2943 37.6244 20.1605 37.4961C20.0239 37.3707 19.9857 37.1927 20.0717 37.0986C20.1585 37.0044 20.3421 37.0309 20.4768 37.1582C20.6126 37.2833 20.6541 37.4627 20.5627 37.5556H20.5626ZM21.7163 37.8972C21.6786 38.019 21.5027 38.0744 21.3255 38.0227C21.1486 37.9693 21.0328 37.8266 21.0685 37.7035C21.1053 37.5809 21.282 37.5232 21.4605 37.5786C21.6371 37.6316 21.7532 37.7733 21.7164 37.8972H21.7163ZM23.0295 38.0421C23.0339 38.1704 22.8836 38.2768 22.6976 38.2791C22.5105 38.2831 22.3592 38.1793 22.3573 38.0532C22.3573 37.9236 22.5041 37.8182 22.6911 37.8151C22.8771 37.8115 23.0295 37.9146 23.0295 38.0421V38.0421ZM24.3193 37.9929C24.3417 38.1181 24.2124 38.2466 24.0277 38.2808C23.8462 38.3137 23.6781 38.2365 23.6549 38.1124C23.6323 37.9841 23.7641 37.8556 23.9453 37.8223C24.1303 37.7904 24.2958 37.8656 24.3193 37.9929" fill="#161614"/>
</svg>
