<svg width="57" height="56" viewBox="0 0 57 56" fill="none" xmlns="http://www.w3.org/2000/svg">
<path d="M19.4647 12.4443H36.7869C37.6298 12.4443 38.4482 12.578 39.2423 12.8575C40.3906 13.2707 41.4289 13.9999 42.2107 14.9478C43.0048 15.8957 43.53 17.0624 43.7133 18.2777C43.7866 18.7273 43.7988 19.177 43.7988 19.6266V36.4339C43.7988 36.9686 43.7744 37.5155 43.6644 38.0381C43.4201 39.2412 42.846 40.3714 42.0153 41.2829C41.1968 42.1943 40.1218 42.8749 38.9613 43.2395C38.2528 43.4582 37.5198 43.5554 36.7747 43.5554C36.4448 43.5554 19.4159 43.5554 19.1593 43.5433C17.9133 43.4825 16.6795 43.0815 15.6412 42.3888C14.6272 41.7082 13.7966 40.7603 13.2591 39.6666C12.7948 38.7308 12.5627 37.6857 12.5627 36.6405V19.3593C12.5383 18.3263 12.7582 17.3054 13.2102 16.3818C13.7355 15.2881 14.5539 14.328 15.5679 13.6475C16.6062 12.9426 17.8278 12.5294 19.0738 12.4686C19.196 12.4443 19.3304 12.4443 19.4647 12.4443V12.4443Z" fill="url(#paint0_linear_233_7497)"/>
<path d="M38.9002 37.8923C38.7903 37.7221 38.6681 37.552 38.5338 37.394C38.2284 37.0294 37.8741 36.7134 37.4832 36.4461C36.9945 36.1179 36.4204 35.9113 35.834 35.887C35.4187 35.8627 35.0034 35.9357 34.6125 36.0815C34.2215 36.2152 33.8429 36.4096 33.4764 36.6041C33.0488 36.8228 32.6213 37.0416 32.1693 37.2238C31.6318 37.4426 31.0698 37.6127 30.4957 37.7343C29.775 37.8679 29.042 37.9166 28.3213 37.9044C27.0142 37.8801 25.7071 37.6857 24.4611 37.3211C23.3616 36.9929 22.3111 36.5433 21.3216 35.9721C20.4542 35.4739 19.648 34.9027 18.8906 34.2586C18.2676 33.7238 17.6935 33.1527 17.156 32.545C16.7895 32.1197 16.4352 31.67 16.1054 31.2082C15.971 31.0259 15.8489 30.8315 15.7389 30.637L12.5139 27.1735V19.335C12.5139 15.5311 15.6045 12.4443 19.4281 12.4443H25.5971L30.1659 17.0624C40.4761 24.0381 37.1411 31.7308 37.1411 31.7308C37.1411 31.7308 40.073 35.012 38.9002 37.8923V37.8923Z" fill="url(#paint1_linear_233_7497)"/>
<path d="M30.1903 17.0625C40.5004 24.0382 37.1655 31.7309 37.1655 31.7309C37.1655 31.7309 40.0973 35.0243 38.9124 37.9045C38.9124 37.9045 37.703 35.8872 35.6752 35.8872C33.7206 35.8872 32.5724 37.9045 28.6388 37.9045C19.8801 37.9045 15.7389 30.625 15.7389 30.625C23.6303 35.7899 29.0175 32.1319 29.0175 32.1319C25.4627 30.0781 17.9011 20.2587 17.9011 20.2587C24.4855 25.8368 27.3317 27.3073 27.3317 27.3073C25.6337 25.9097 20.8696 19.0799 20.8696 19.0799C24.6809 22.9201 32.2547 28.2795 32.2547 28.2795C34.4047 22.349 30.1903 17.0625 30.1903 17.0625Z" fill="white"/>
<defs>
<linearGradient id="paint0_linear_233_7497" x1="31.1176" y1="11.3342" x2="25.2682" y2="44.6797" gradientUnits="userSpaceOnUse">
<stop stop-color="#FAAE42"/>
<stop offset="1" stop-color="#EF3E31"/>
</linearGradient>
<linearGradient id="paint1_linear_233_7497" x1="28.4693" y1="12.947" x2="24.1883" y2="37.3521" gradientUnits="userSpaceOnUse">
<stop stop-color="#E39F3A"/>
<stop offset="1" stop-color="#D33929"/>
</linearGradient>
</defs>
</svg>
