<svg width="57" height="56" viewBox="0 0 57 56" fill="none" xmlns="http://www.w3.org/2000/svg">
<path d="M43.2088 26.614L29.5495 13.0313C28.7634 12.249 27.4875 12.249 26.7004 13.0313L23.864 15.8519L27.4621 19.4301C28.2983 19.1491 29.2571 19.3376 29.9236 20.0004C30.5933 20.6675 30.7815 21.6291 30.4921 22.4633L33.9597 25.9118C34.7987 25.6244 35.7667 25.8103 36.4367 26.4777C37.3732 27.4086 37.3732 28.9174 36.4367 29.8489C35.5 30.7805 33.9828 30.7805 33.0456 29.8489C32.3412 29.1477 32.1672 28.119 32.5238 27.256L29.29 24.0401L29.2896 32.503C29.524 32.6182 29.7381 32.7705 29.9236 32.9538C30.8601 33.8847 30.8601 35.3936 29.9236 36.3259C28.9869 37.257 27.469 37.257 26.5336 36.3259C25.5971 35.3936 25.5971 33.8848 26.5336 32.9539C26.758 32.7307 27.0247 32.5538 27.3183 32.4337V23.892C27.0243 23.7726 26.7574 23.5957 26.5336 23.3717C25.8241 22.6671 25.6535 21.6318 26.017 20.7654L22.4701 17.2378L13.1042 26.5511C12.3172 27.3341 12.3172 28.603 13.1042 29.3854L26.7637 42.9683C27.5501 43.7507 28.8257 43.7507 29.6131 42.9683L43.2087 29.4485C43.9955 28.6658 43.9955 27.3962 43.2087 26.614" fill="#DE4C36"/>
</svg>
