<svg width="57" height="56" viewBox="0 0 57 56" fill="none" xmlns="http://www.w3.org/2000/svg">
<path d="M43.7988 12.4443H12.5139V43.5554H43.7988V12.4443Z" fill="#F7DF1E"/>
<path d="M33.5294 36.7499C34.1595 37.7731 34.9794 38.5252 36.4294 38.5252C37.6476 38.5252 38.4257 37.9198 38.4257 37.0832C38.4257 36.0808 37.6262 35.7257 36.2854 35.1425L35.5505 34.8289C33.4291 33.9302 32.0197 32.8042 32.0197 30.424C32.0197 28.2314 33.6997 26.5623 36.3252 26.5623C38.1943 26.5623 39.5381 27.2092 40.5064 28.903L38.2171 30.3647C37.7131 29.466 37.1693 29.1119 36.3252 29.1119C35.4641 29.1119 34.9183 29.6551 34.9183 30.3647C34.9183 31.2418 35.4646 31.5968 36.7259 32.14L37.4608 32.4531C39.9587 33.5183 41.369 34.6042 41.369 37.0457C41.369 39.6778 39.2898 41.1198 36.4975 41.1198C33.7672 41.1198 32.0034 39.826 31.1403 38.1302L33.5294 36.7499ZM23.1443 37.0032C23.6061 37.8181 24.0262 38.5069 25.0363 38.5069C26.0021 38.5069 26.6114 38.1311 26.6114 36.6699V26.7292H29.5512V36.7094C29.5512 39.7366 27.7665 41.1144 25.1614 41.1144C22.8076 41.1144 21.4445 39.903 20.7512 38.444L23.1443 37.0032Z" fill="black"/>
</svg>
