<svg width="57" height="56" viewBox="0 0 57 56" fill="none" xmlns="http://www.w3.org/2000/svg">
<path d="M41.3306 36.4764C39.6284 36.4336 38.3092 36.6054 37.2027 37.0779C36.8835 37.2067 36.3728 37.2068 36.3302 37.6149C36.5005 37.7868 36.5218 38.066 36.6707 38.3022C36.9263 38.7317 37.3728 39.3117 37.7772 39.6125C38.2239 39.9561 38.6709 40.2997 39.1389 40.6004C39.9688 41.1159 40.9051 41.4166 41.7136 41.9321C42.1819 42.2326 42.6497 42.6195 43.1179 42.9416C43.3519 43.1132 43.5008 43.3927 43.7988 43.5V43.4356C43.6497 43.2422 43.6072 42.9631 43.4584 42.7482C43.2458 42.5334 43.0327 42.3401 42.8199 42.1253C42.2029 41.2878 41.437 40.5574 40.6072 39.9561C39.9263 39.4835 38.4367 38.8392 38.1602 38.0444C38.1602 38.0444 38.1388 38.0231 38.1177 38.0016C38.5857 37.9586 39.1389 37.7868 39.5859 37.6579C40.3093 37.4644 40.9688 37.5075 41.7136 37.3142C42.054 37.2283 42.3945 37.1209 42.7348 37.0134V36.8202C42.352 36.4336 42.0754 35.9182 41.6711 35.553C40.5859 34.6077 39.3942 33.6843 38.1602 32.9111C37.5005 32.4815 36.6493 32.2022 35.9472 31.8372C35.6921 31.7081 35.2664 31.6438 35.1175 31.429C34.7344 30.9566 34.5216 30.3337 34.245 29.7752C33.6282 28.5938 33.0322 27.2837 32.5002 26.038C32.1174 25.2003 31.8833 24.3625 31.4151 23.5895C29.2235 19.9381 26.8404 17.7258 23.1807 15.5563C22.3934 15.1054 21.4571 14.912 20.4571 14.6759C19.9253 14.6543 19.3932 14.6114 18.8613 14.5898C18.5209 14.4394 18.1804 14.0314 17.8825 13.8381C16.6699 13.0648 13.5418 11.3896 12.6482 13.6019C12.0736 14.9979 13.4994 16.3725 13.9886 17.0815C14.3506 17.5754 14.8185 18.1338 15.0738 18.6923C15.2228 19.0572 15.2652 19.4441 15.4142 19.8307C15.7548 20.7755 16.0738 21.8282 16.5208 22.7089C16.7549 23.1598 17.0101 23.6323 17.308 24.0404C17.4783 24.2766 17.7761 24.3841 17.84 24.7707C17.5422 25.2003 17.5208 25.8447 17.3505 26.3816C16.5845 28.8087 16.8825 31.8157 17.9676 33.5983C18.3079 34.1351 19.1166 35.3168 20.2017 34.8656C21.1593 34.4791 20.9465 33.2548 21.2229 32.1809C21.287 31.9228 21.2445 31.7512 21.372 31.5794V31.6225C21.67 32.2237 21.9677 32.8038 22.2444 33.4051C22.9041 34.4575 24.053 35.553 25.0104 36.2833C25.5213 36.6698 25.9255 37.3357 26.5639 37.572V37.5074H26.5212C26.3935 37.3141 26.202 37.2283 26.0319 37.0778C25.649 36.6914 25.2232 36.2188 24.9254 35.7892C24.0319 34.5862 23.2444 33.2547 22.5423 31.88C22.202 31.2143 21.9039 30.484 21.6274 29.8182C21.4996 29.5602 21.4996 29.1738 21.2869 29.045C20.9677 29.5175 20.4997 29.9256 20.2656 30.5055C19.8615 31.429 19.8188 32.5674 19.6699 33.7486C19.5847 33.7703 19.6272 33.7486 19.5846 33.7918C18.9039 33.6197 18.6698 32.9111 18.4143 32.3096C17.7759 30.7847 17.6695 28.3361 18.2229 26.5749C18.3719 26.1238 19.0103 24.7063 18.7549 24.2767C18.6273 23.8686 18.2015 23.6323 17.9676 23.3102C17.6911 22.9021 17.393 22.3868 17.2016 21.9356C16.6909 20.7327 16.4355 19.401 15.8824 18.1982C15.627 17.6397 15.1804 17.06 14.8185 16.5445C14.4143 15.9646 13.9674 15.5563 13.6482 14.8691C13.5419 14.6329 13.3928 14.2462 13.5631 13.9885C13.6056 13.8166 13.6906 13.7523 13.861 13.7093C14.1376 13.4729 14.925 13.7737 15.2014 13.9025C15.9888 14.2245 16.6483 14.5255 17.308 14.9765C17.6058 15.1913 17.925 15.5994 18.3079 15.7068H18.7548C19.4358 15.8571 20.2016 15.7498 20.84 15.943C21.9679 16.308 22.9891 16.8451 23.9041 17.425C26.6916 19.2077 28.9893 21.7422 30.5428 24.7707C30.7981 25.2645 30.9044 25.7158 31.1385 26.2311C31.5855 27.2837 32.1387 28.3576 32.5853 29.3886C33.0322 30.3979 33.4577 31.429 34.0961 32.2668C34.4153 32.7176 35.6918 32.954 36.2664 33.1903C36.692 33.3835 37.3517 33.5555 37.7346 33.7917C38.458 34.2425 39.1814 34.7583 39.8624 35.2521C40.2029 35.5099 41.2666 36.0469 41.3306 36.4764V36.4764Z" fill="#00546B"/>
<path d="M19.6271 17.8115C19.2655 17.8115 19.0102 17.8547 18.7549 17.9191V17.962H18.7974C18.9678 18.3057 19.2655 18.542 19.4782 18.8426C19.6485 19.1862 19.7974 19.53 19.9677 19.8737C19.9889 19.8521 20.0102 19.8307 20.0102 19.8307C20.3082 19.6158 20.457 19.2722 20.457 18.7567C20.3294 18.6064 20.3081 18.4561 20.2017 18.3057C20.0741 18.0908 19.7974 17.9835 19.6271 17.8115V17.8115Z" fill="#00546B"/>
</svg>
