<svg width="57" height="56" viewBox="0 0 57 56" fill="none" xmlns="http://www.w3.org/2000/svg">
<path d="M28.1565 30.743C29.6798 30.743 30.9146 29.515 30.9146 28.0002C30.9146 26.4853 29.6798 25.2573 28.1565 25.2573C26.6332 25.2573 25.3983 26.4853 25.3983 28.0002C25.3983 29.515 26.6332 30.743 28.1565 30.743Z" fill="#61DAFB"/>
<path fill-rule="evenodd" clip-rule="evenodd" d="M15.1876 26.5569C14.5622 27.1184 14.3566 27.6079 14.3566 28.0001C14.3566 28.3922 14.5622 28.8818 15.1876 29.4433C15.8127 30.0044 16.7736 30.5555 18.0463 31.0387C20.5847 32.0026 24.1589 32.6195 28.1564 32.6195C32.1539 32.6195 35.7281 32.0026 38.2665 31.0387C39.5392 30.5555 40.5001 30.0044 41.1252 29.4433C41.7507 28.8818 41.9562 28.3922 41.9562 28.0001C41.9562 27.6079 41.7507 27.1184 41.1252 26.5569C40.5001 25.9958 39.5392 25.4446 38.2665 24.9614C35.7281 23.9976 32.1539 23.3806 28.1564 23.3806C24.1589 23.3806 20.5847 23.9976 18.0463 24.9614C16.7736 25.4446 15.8127 25.9958 15.1876 26.5569ZM17.3364 23.0916C20.1544 22.0216 23.9802 21.3806 28.1564 21.3806C32.3326 21.3806 36.1584 22.0216 38.9764 23.0916C40.382 23.6253 41.5884 24.2851 42.4612 25.0686C43.3336 25.8517 43.9562 26.8404 43.9562 28.0001C43.9562 29.1597 43.3336 30.1484 42.4612 30.9316C41.5884 31.715 40.382 32.3748 38.9764 32.9085C36.1584 33.9785 32.3326 34.6195 28.1564 34.6195C23.9802 34.6195 20.1544 33.9785 17.3364 32.9085C15.9308 32.3748 14.7244 31.715 13.8516 30.9316C12.9792 30.1484 12.3566 29.1597 12.3566 28.0001C12.3566 26.8404 12.9792 25.8517 13.8516 25.0686C14.7244 24.2851 15.9308 23.6253 17.3364 23.0916Z" fill="#61DAFB"/>
<path fill-rule="evenodd" clip-rule="evenodd" d="M22.9369 16.1117C22.1362 15.8541 21.6043 15.9205 21.2586 16.1191C20.9128 16.3176 20.589 16.7424 20.413 17.5608C20.237 18.3792 20.2375 19.4816 20.4529 20.8184C20.8825 23.485 22.1317 26.8702 24.1298 30.3119C26.128 33.7535 28.4515 36.522 30.5589 38.2253C31.6154 39.0792 32.5751 39.6308 33.3759 39.8884C34.1766 40.146 34.7085 40.0796 35.0542 39.8811C35.4 39.6826 35.7238 39.2577 35.8998 38.4393C36.0758 37.6209 36.0753 36.5186 35.8599 35.1817C35.4303 32.5152 34.1811 29.1299 32.1829 25.6883C30.1848 22.2466 27.8613 19.4781 25.7539 17.7749C24.6974 16.9209 23.7377 16.3693 22.9369 16.1117ZM27.0146 16.2264C29.3567 18.1193 31.8287 21.0948 33.9174 24.6924C36.0061 28.2901 37.3613 31.9067 37.8388 34.8702C38.0769 36.3483 38.1056 37.718 37.8595 38.8618C37.6135 40.0057 37.064 41.0333 36.0584 41.6107C35.0528 42.1881 33.8831 42.1475 32.7639 41.7875C31.6448 41.4274 30.4663 40.7179 29.2981 39.7737C26.9561 37.8808 24.4841 34.9054 22.3954 31.3077C20.3067 27.71 18.9514 24.0934 18.474 21.1299C18.2359 19.6518 18.2072 18.2821 18.4532 17.1383C18.6993 15.9944 19.2488 14.9668 20.2544 14.3894C21.26 13.8121 22.4297 13.8526 23.5488 14.2127C24.668 14.5727 25.8464 15.2822 27.0146 16.2264Z" fill="#61DAFB"/>
<path fill-rule="evenodd" clip-rule="evenodd" d="M35.8998 17.5608C35.7238 16.7424 35.4 16.3175 35.0543 16.119C34.7085 15.9205 34.1766 15.8541 33.3759 16.1117C32.5752 16.3693 31.6154 16.9209 30.5589 17.7748C28.4515 19.4781 26.128 22.2466 24.1299 25.6882C22.1318 29.1299 20.8825 32.5151 20.4529 35.1817C20.2375 36.5185 20.237 37.6209 20.4131 38.4393C20.5891 39.2577 20.9129 39.6825 21.2586 39.881C21.6044 40.0796 22.1363 40.146 22.937 39.8884C23.7377 39.6308 24.6974 39.0792 25.754 38.2252C27.8614 36.522 30.1849 33.7535 32.183 30.3118C34.1811 26.8702 35.4304 23.4849 35.86 20.8184C36.0754 19.4815 36.0759 18.3792 35.8998 17.5608ZM37.8388 21.1299C37.3614 24.0934 36.0062 27.71 33.9174 31.3077C31.8287 34.9053 29.3567 37.8808 27.0147 39.7737C25.8465 40.7179 24.668 41.4274 23.5489 41.7874C22.4297 42.1475 21.2601 42.188 20.2544 41.6107C19.2488 41.0333 18.6993 40.0057 18.4533 38.8618C18.2073 37.718 18.2359 36.3483 18.4741 34.8701C18.9515 31.9067 20.3067 28.2901 22.3954 24.6924C24.4842 21.0947 26.9561 18.1193 29.2982 16.2264C30.4664 15.2822 31.6449 14.5727 32.764 14.2126C33.8832 13.8526 35.0528 13.812 36.0585 14.3894C37.0641 14.9668 37.6136 15.9944 37.8596 17.1382C38.1056 18.2821 38.077 19.6518 37.8388 21.1299Z" fill="#61DAFB"/>
</svg>
