<svg width="28" height="28" viewBox="0 0 28 28" fill="none" xmlns="http://www.w3.org/2000/svg">
<path d="M4.00938 4.63161C2.73825 5.90274 1.72994 7.41179 1.042 9.0726C0.354073 10.7334 -1.64289e-07 12.5135 0 14.3111C1.64289e-07 16.1088 0.354074 17.8888 1.04201 19.5496C1.72994 21.2104 2.73825 22.7195 4.00938 23.9906C5.28051 25.2617 6.78957 26.2701 8.45038 26.958C10.1112 27.6459 11.8912 28 13.6889 28C15.4865 28 17.2666 27.6459 18.9274 26.958C20.5882 26.2701 22.0973 25.2617 23.3684 23.9906L19.0585 19.6807C18.3533 20.3858 17.5162 20.9452 16.5949 21.3268C15.6736 21.7084 14.6861 21.9049 13.6889 21.9049C12.6917 21.9049 11.7042 21.7084 10.7829 21.3268C9.86157 20.9452 9.02444 20.3858 8.3193 19.6807C7.61415 18.9756 7.0548 18.1384 6.67318 17.2171C6.29156 16.2958 6.09514 15.3083 6.09514 14.3111C6.09514 13.3139 6.29156 12.3264 6.67318 11.4051C7.0548 10.4838 7.61415 9.64666 8.3193 8.94152L4.00938 4.63161Z" fill="#03AFED"/>
<path d="M23.9906 23.3684C25.2617 22.0973 26.27 20.5882 26.958 18.9274C27.6459 17.2666 28 15.4865 28 13.6889C28 11.8912 27.6459 10.1112 26.958 8.45038C26.27 6.78957 25.2617 5.28051 23.9906 4.00938C22.7195 2.73825 21.2104 1.72994 19.5496 1.042C17.8888 0.354074 16.1087 1.78344e-09 14.3111 0C12.5134 -1.78344e-09 10.7334 0.354074 9.07257 1.042C7.41176 1.72994 5.90271 2.73825 4.63157 4.00938L8.94186 8.31967C9.64695 7.61457 10.484 7.05526 11.4053 6.67366C12.3265 6.29207 13.3139 6.09566 14.3111 6.09566C15.3082 6.09566 16.2956 6.29207 17.2169 6.67366C18.1381 7.05526 18.9752 7.61457 19.6803 8.31967C20.3854 9.02476 20.9447 9.86183 21.3263 10.7831C21.7079 11.7043 21.9043 12.6917 21.9043 13.6889C21.9043 14.686 21.7079 15.6734 21.3263 16.5947C20.9447 17.5159 20.3854 18.353 19.6803 19.0581L23.9906 23.3684Z" fill="#043E96"/>
<path d="M8.98191 9.60413C7.71291 10.8731 7 12.5943 7 14.3889C7 16.1835 7.71291 17.9046 8.98191 19.1736C10.2509 20.4426 11.972 21.1556 13.7667 21.1556C15.5613 21.1556 17.2824 20.4426 18.5514 19.1736L13.7667 14.3889L8.98191 9.60413Z" fill="#F7B401"/>
</svg>
