<svg width="28" height="25" viewBox="0 0 28 25" fill="none" xmlns="http://www.w3.org/2000/svg">
<path d="M10.3671 21.5696V18.3947C10.3671 17.5842 11.0905 16.9272 11.9828 16.9272H15.2447C15.6732 16.9272 16.0842 17.0818 16.3872 17.357C16.6902 17.6322 16.8604 18.0055 16.8604 18.3947V21.5696C16.8577 21.9066 17.0032 22.2306 17.2646 22.4697C17.5259 22.7088 17.8816 22.8433 18.2526 22.8433H20.478C21.5173 22.8458 22.515 22.4725 23.2509 21.8058C23.9868 21.1392 24.4004 20.234 24.4004 19.29V10.2451C24.4004 9.48253 24.0282 8.75921 23.3842 8.26998L15.8138 2.77844C14.4969 1.81558 12.61 1.84667 11.3325 2.85227L3.93474 8.26998C3.2603 8.74479 2.8572 9.47025 2.83728 10.2451V19.2807C2.83728 21.2483 4.59341 22.8433 6.7597 22.8433H8.9343C9.70482 22.8433 10.331 22.2787 10.3366 21.5789L10.3671 21.5696Z" fill="#004593"/>
</svg>
